# Blender 4.4.0
# www.blender.org
mtllib subPlayerHand.mtl
o 立方体
v 1.034033 0.471550 -0.000000
v 0.927328 0.727658 0.000000
v 0.727658 0.927328 0.000000
v 0.471550 1.034033 -0.000000
v 1.034033 -0.471550 -0.000000
v 0.927328 -0.727658 0.000000
v 0.727658 -0.927328 0.000000
v 0.471550 -1.034033 -0.000000
v 0.471550 -1.034033 -0.471550
v 0.471550 -0.471550 -1.034033
v 1.034033 -0.471550 -0.471550
v 0.456030 -0.927328 -0.727658
v 0.727658 -0.927328 -0.456030
v 0.716163 -0.856736 -0.716163
v 0.727658 -0.456030 -0.927328
v 0.456030 -0.727658 -0.927328
v 0.716163 -0.716163 -0.856736
v 0.927328 -0.727658 -0.456030
v 0.927328 -0.456030 -0.727658
v 0.856736 -0.716163 -0.716163
v 0.471550 0.471550 -1.034033
v 0.471550 1.034033 -0.471550
v 1.034033 0.471550 -0.471550
v 0.456030 0.727658 -0.927328
v 0.727658 0.456030 -0.927328
v 0.716163 0.716163 -0.856736
v 0.727658 0.927328 -0.456030
v 0.456030 0.927328 -0.727658
v 0.716163 0.856736 -0.716163
v 0.927328 0.456030 -0.727658
v 0.927328 0.727658 -0.456030
v 0.856736 0.716163 -0.716163
v 0.471550 -1.034033 0.471550
v 1.034033 -0.471550 0.471550
v 0.471550 -0.471550 1.034033
v 0.727658 -0.927328 0.456030
v 0.456030 -0.927328 0.727658
v 0.716163 -0.856736 0.716163
v 0.927328 -0.456030 0.727658
v 0.927328 -0.727658 0.456030
v 0.856736 -0.716163 0.716163
v 0.456030 -0.727658 0.927328
v 0.727658 -0.456030 0.927328
v 0.716163 -0.716163 0.856736
v 0.471550 1.034033 0.471550
v 0.471550 0.471550 1.034033
v 1.034033 0.471550 0.471550
v 0.456030 0.927328 0.727658
v 0.727658 0.927328 0.456030
v 0.716163 0.856736 0.716163
v 0.727658 0.456030 0.927328
v 0.456030 0.727658 0.927328
v 0.716163 0.716163 0.856736
v 0.927328 0.727658 0.456030
v 0.927328 0.456030 0.727658
v 0.856736 0.716163 0.716163
v -0.471550 -1.034033 -0.471550
v -1.034033 -0.471550 -0.471550
v -0.471550 -0.471550 -1.034033
v -0.727658 -0.927328 -0.456030
v -0.456030 -0.927328 -0.727658
v -0.716163 -0.856736 -0.716163
v -0.927328 -0.456030 -0.727658
v -0.927328 -0.727658 -0.456030
v -0.856736 -0.716163 -0.716163
v -0.456030 -0.727658 -0.927328
v -0.727658 -0.456030 -0.927328
v -0.716163 -0.716163 -0.856736
v -0.471550 1.034033 -0.471550
v -0.471550 0.471550 -1.034033
v -1.034033 0.471550 -0.471550
v -0.456030 0.927328 -0.727658
v -0.727658 0.927328 -0.456030
v -0.716163 0.856736 -0.716163
v -0.727658 0.456030 -0.927328
v -0.456030 0.727658 -0.927328
v -0.716163 0.716163 -0.856736
v -0.927328 0.727658 -0.456030
v -0.927328 0.456030 -0.727658
v -0.856736 0.716163 -0.716163
v -0.471550 -1.034033 0.471550
v -0.471550 -0.471550 1.034033
v -1.034033 -0.471550 0.471550
v -0.456030 -0.927328 0.727658
v -0.727658 -0.927328 0.456030
v -0.716163 -0.856736 0.716163
v -0.727658 -0.456030 0.927328
v -0.456030 -0.727658 0.927328
v -0.716163 -0.716163 0.856736
v -0.927328 -0.727658 0.456030
v -0.927328 -0.456030 0.727658
v -0.856736 -0.716163 0.716163
v -0.471550 1.034033 0.471550
v -1.034033 0.471550 0.471550
v -0.471550 0.471550 1.034033
v -0.727658 0.927328 0.456030
v -0.456030 0.927328 0.727658
v -0.716163 0.856736 0.716163
v -0.927328 0.456030 0.727658
v -0.927328 0.727658 0.456030
v -0.856736 0.716163 0.716163
v -0.456030 0.727658 0.927328
v -0.727658 0.456030 0.927328
v -0.716163 0.716163 0.856736
v -0.471550 -1.034033 -0.000000
v -0.727658 -0.927328 -0.000000
v -0.927328 -0.727658 -0.000000
v -1.034033 -0.471550 -0.000000
v -0.471550 1.034033 -0.000000
v -0.727658 0.927328 0.000000
v -0.927328 0.727658 0.000000
v -1.034033 0.471550 -0.000000
v 0.471550 -0.000000 -1.034033
v 0.727658 0.000000 -0.927328
v 0.927328 0.000000 -0.727658
v 1.034033 -0.000000 -0.471550
v 0.471550 -0.000000 1.034033
v 0.727658 0.000000 0.927328
v 0.927328 0.000000 0.727658
v 1.034033 -0.000000 0.471550
v -1.034033 -0.000000 0.471550
v -0.927328 0.000000 0.727658
v -0.727658 0.000000 0.927328
v -0.471550 -0.000000 1.034033
v -0.471550 -0.000000 -1.034033
v -0.727658 0.000000 -0.927328
v -0.927328 0.000000 -0.727658
v -1.034033 -0.000000 -0.471550
v 1.085363 0.000000 0.000000
v -1.085363 0.000000 0.000000
v -0.000000 -1.034033 0.471550
v -0.000000 -0.927328 0.727658
v -0.000000 -0.727658 0.927328
v -0.000000 -0.471550 1.034033
v -0.000000 1.034033 0.471550
v 0.000000 0.927328 0.727658
v 0.000000 0.727658 0.927328
v -0.000000 0.471550 1.034033
v -0.000000 -1.034033 -0.471550
v 0.000000 -0.927328 -0.727658
v 0.000000 -0.727658 -0.927328
v -0.000000 -0.471550 -1.034033
v -0.000000 1.034033 -0.471550
v 0.000000 0.927328 -0.727658
v 0.000000 0.727658 -0.927328
v -0.000000 0.471550 -1.034033
v 0.000000 -1.085363 0.000000
v 0.000000 1.085363 0.000000
v 0.000000 0.000000 1.085363
v 0.000000 0.000000 -1.085363
vn 0.9749 0.2227 -0.0000
vn 0.8309 0.5564 -0.0000
vn 0.5564 0.8309 -0.0000
vn 0.2227 0.9749 -0.0000
vn 0.9749 -0.2227 -0.0000
vn 0.8309 -0.5564 -0.0000
vn 0.5564 -0.8309 -0.0000
vn 0.2227 -0.9749 -0.0000
vn 0.1962 -0.9607 -0.1962
vn 0.1962 -0.1962 -0.9607
vn 0.9607 -0.1962 -0.1962
vn 0.1361 -0.8326 -0.5369
vn 0.5369 -0.8326 -0.1361
vn 0.4488 -0.7727 -0.4488
vn 0.5369 -0.1361 -0.8326
vn 0.1361 -0.5369 -0.8326
vn 0.4488 -0.4488 -0.7727
vn 0.8326 -0.5369 -0.1361
vn 0.8326 -0.1361 -0.5369
vn 0.7727 -0.4488 -0.4488
vn 0.1962 0.1962 -0.9607
vn 0.1962 0.9607 -0.1962
vn 0.9607 0.1962 -0.1962
vn 0.1361 0.5369 -0.8326
vn 0.5369 0.1361 -0.8326
vn 0.4488 0.4488 -0.7727
vn 0.5369 0.8326 -0.1361
vn 0.1361 0.8326 -0.5369
vn 0.4488 0.7727 -0.4488
vn 0.8326 0.1361 -0.5369
vn 0.8326 0.5369 -0.1361
vn 0.7727 0.4488 -0.4488
vn 0.1962 -0.9607 0.1962
vn 0.9607 -0.1962 0.1962
vn 0.1962 -0.1962 0.9607
vn 0.5369 -0.8326 0.1361
vn 0.1361 -0.8326 0.5369
vn 0.4488 -0.7727 0.4488
vn 0.8326 -0.1361 0.5369
vn 0.8326 -0.5369 0.1361
vn 0.7727 -0.4488 0.4488
vn 0.1361 -0.5369 0.8326
vn 0.5369 -0.1361 0.8326
vn 0.4488 -0.4488 0.7727
vn 0.1962 0.9607 0.1962
vn 0.1962 0.1962 0.9607
vn 0.9607 0.1962 0.1962
vn 0.1361 0.8326 0.5369
vn 0.5369 0.8326 0.1361
vn 0.4488 0.7727 0.4488
vn 0.5369 0.1361 0.8326
vn 0.1361 0.5369 0.8326
vn 0.4488 0.4488 0.7727
vn 0.8326 0.5369 0.1361
vn 0.8326 0.1361 0.5369
vn 0.7727 0.4488 0.4488
vn -0.1962 -0.9607 -0.1962
vn -0.9607 -0.1962 -0.1962
vn -0.1962 -0.1962 -0.9607
vn -0.5369 -0.8326 -0.1361
vn -0.1361 -0.8326 -0.5369
vn -0.4488 -0.7727 -0.4488
vn -0.8326 -0.1361 -0.5369
vn -0.8326 -0.5369 -0.1361
vn -0.7727 -0.4488 -0.4488
vn -0.1361 -0.5369 -0.8326
vn -0.5369 -0.1361 -0.8326
vn -0.4488 -0.4488 -0.7727
vn -0.1962 0.9607 -0.1962
vn -0.1962 0.1962 -0.9607
vn -0.9607 0.1962 -0.1962
vn -0.1361 0.8326 -0.5369
vn -0.5369 0.8326 -0.1361
vn -0.4488 0.7727 -0.4488
vn -0.5369 0.1361 -0.8326
vn -0.1361 0.5369 -0.8326
vn -0.4488 0.4488 -0.7727
vn -0.8326 0.5369 -0.1361
vn -0.8326 0.1361 -0.5369
vn -0.7727 0.4488 -0.4488
vn -0.1962 -0.9607 0.1962
vn -0.1962 -0.1962 0.9607
vn -0.9607 -0.1962 0.1962
vn -0.1361 -0.8326 0.5369
vn -0.5369 -0.8326 0.1361
vn -0.4488 -0.7727 0.4488
vn -0.5369 -0.1361 0.8326
vn -0.1361 -0.5369 0.8326
vn -0.4488 -0.4488 0.7727
vn -0.8326 -0.5369 0.1361
vn -0.8326 -0.1361 0.5369
vn -0.7727 -0.4488 0.4488
vn -0.1962 0.9607 0.1962
vn -0.9607 0.1962 0.1962
vn -0.1962 0.1962 0.9607
vn -0.5369 0.8326 0.1361
vn -0.1361 0.8326 0.5369
vn -0.4488 0.7727 0.4488
vn -0.8326 0.1361 0.5369
vn -0.8326 0.5369 0.1361
vn -0.7727 0.4488 0.4488
vn -0.1361 0.5369 0.8326
vn -0.5369 0.1361 0.8326
vn -0.4488 0.4488 0.7727
vn -0.2227 -0.9749 -0.0000
vn -0.5564 -0.8309 -0.0000
vn -0.8309 -0.5564 -0.0000
vn -0.9749 -0.2227 -0.0000
vn -0.2227 0.9749 -0.0000
vn -0.5564 0.8309 -0.0000
vn -0.8309 0.5564 -0.0000
vn -0.9749 0.2227 -0.0000
vn 0.2227 -0.0000 -0.9749
vn 0.5564 -0.0000 -0.8309
vn 0.8309 -0.0000 -0.5564
vn 0.9749 -0.0000 -0.2227
vn 0.2227 -0.0000 0.9749
vn 0.5564 -0.0000 0.8309
vn 0.8309 -0.0000 0.5564
vn 0.9749 -0.0000 0.2227
vn -0.9749 -0.0000 0.2227
vn -0.8309 -0.0000 0.5564
vn -0.5564 -0.0000 0.8309
vn -0.2227 -0.0000 0.9749
vn -0.2227 -0.0000 -0.9749
vn -0.5564 -0.0000 -0.8309
vn -0.8309 -0.0000 -0.5564
vn -0.9749 -0.0000 -0.2227
vn 1.0000 -0.0000 -0.0000
vn -1.0000 -0.0000 -0.0000
vn -0.0000 -0.9749 0.2227
vn -0.0000 -0.8309 0.5564
vn -0.0000 -0.5564 0.8309
vn -0.0000 -0.2227 0.9749
vn -0.0000 0.9749 0.2227
vn -0.0000 0.8309 0.5564
vn -0.0000 0.5564 0.8309
vn -0.0000 0.2227 0.9749
vn -0.0000 -0.9749 -0.2227
vn -0.0000 -0.8309 -0.5564
vn -0.0000 -0.5564 -0.8309
vn -0.0000 -0.2227 -0.9749
vn -0.0000 0.9749 -0.2227
vn -0.0000 0.8309 -0.5564
vn -0.0000 0.5564 -0.8309
vn -0.0000 0.2227 -0.9749
vn -0.0000 -1.0000 -0.0000
vn -0.0000 1.0000 -0.0000
vn -0.0000 -0.0000 1.0000
vn -0.0000 -0.0000 -1.0000
vt 0.557004 0.875000
vt 0.500000 0.932004
vt 0.500000 0.875000
vt 0.557004 0.625000
vt 0.500000 0.682004
vt 0.500000 0.625000
vt 0.250000 0.567996
vt 0.307004 0.625000
vt 0.250000 0.625000
vt 0.807004 0.625000
vt 0.750000 0.682004
vt 0.750000 0.625000
vt 0.557004 0.125000
vt 0.500000 0.182004
vt 0.500000 0.125000
vt 0.557004 0.375000
vt 0.500000 0.432004
vt 0.500000 0.375000
vt 0.192996 0.715957
vt 0.159043 0.682004
vt 0.192996 0.682004
vt 0.192996 0.750000
vt 0.160480 0.714520
vt 0.442996 1.000000
vt 0.375000 0.932004
vt 0.442996 0.932004
vt 0.442996 0.034043
vt 0.375000 0.000000
vt 0.442996 0.000000
vt 0.375000 0.067996
vt 0.442996 0.067996
vt 0.125000 0.714520
vt 0.125000 0.682004
vt 0.160480 0.750000
vt 0.590957 0.932004
vt 0.557004 1.000000
vt 0.557004 0.932004
vt 0.625000 0.932004
vt 0.589520 1.000000
vt 0.875000 0.682004
vt 0.807004 0.750000
vt 0.807004 0.682004
vt 0.625000 0.067996
vt 0.589520 0.035480
vt 0.625000 0.035480
vt 0.557004 0.034043
vt 0.590957 0.067996
vt 0.557004 0.067996
vt 0.557004 0.000000
vt 0.589520 0.000000
vt 0.159043 0.567996
vt 0.192996 0.534043
vt 0.192996 0.567996
vt 0.125000 0.567996
vt 0.160480 0.535480
vt 0.442996 0.215957
vt 0.375000 0.182004
vt 0.442996 0.182004
vt 0.442996 0.284043
vt 0.375000 0.214520
vt 0.375000 0.317996
vt 0.442996 0.317996
vt 0.160480 0.500000
vt 0.192996 0.500000
vt 0.125000 0.535480
vt 0.807004 0.500000
vt 0.875000 0.567996
vt 0.807004 0.567996
vt 0.590957 0.317996
vt 0.625000 0.250000
vt 0.625000 0.317996
vt 0.557004 0.284043
vt 0.557004 0.317996
vt 0.557004 0.215957
vt 0.589520 0.285480
vt 0.590957 0.182004
vt 0.557004 0.182004
vt 0.625000 0.182004
vt 0.589520 0.214520
vt 0.625000 0.214520
vt 0.589520 0.232092
vt 0.340957 0.682004
vt 0.307004 0.715957
vt 0.307004 0.682004
vt 0.409043 0.682004
vt 0.339520 0.714520
vt 0.442996 0.715957
vt 0.442996 0.682004
vt 0.442996 0.784043
vt 0.410480 0.714520
vt 0.375000 0.817996
vt 0.442996 0.817996
vt 0.339520 0.750000
vt 0.307004 0.750000
vt 0.357092 0.714520
vt 0.692996 0.750000
vt 0.659043 0.682004
vt 0.692996 0.682004
vt 0.590957 0.817996
vt 0.625000 0.785480
vt 0.625000 0.817996
vt 0.557004 0.784043
vt 0.557004 0.817996
vt 0.557004 0.715957
vt 0.589520 0.785480
vt 0.590957 0.682004
vt 0.557004 0.682004
vt 0.589520 0.714520
vt 0.589520 0.767908
vt 0.307004 0.534043
vt 0.340957 0.567996
vt 0.307004 0.567996
vt 0.307004 0.500000
vt 0.339520 0.535480
vt 0.442996 0.465957
vt 0.375000 0.432004
vt 0.442996 0.432004
vt 0.442996 0.534043
vt 0.375000 0.464520
vt 0.409043 0.567996
vt 0.442996 0.567996
vt 0.410480 0.535480
vt 0.339520 0.500000
vt 0.357092 0.535480
vt 0.659043 0.567996
vt 0.692996 0.500000
vt 0.692996 0.567996
vt 0.590957 0.567996
vt 0.660480 0.500000
vt 0.557004 0.534043
vt 0.557004 0.567996
vt 0.557004 0.465957
vt 0.589520 0.535480
vt 0.590957 0.432004
vt 0.557004 0.432004
vt 0.625000 0.432004
vt 0.589520 0.464520
vt 0.625000 0.464520
vt 0.589520 0.482092
vt 0.192996 0.625000
vt 0.159043 0.625000
vt 0.125000 0.625000
vt 0.442996 0.125000
vt 0.375000 0.125000
vt 0.500000 1.000000
vt 0.500000 0.034043
vt 0.500000 0.000000
vt 0.500000 0.067996
vt 0.875000 0.625000
vt 0.590957 0.125000
vt 0.625000 0.125000
vt 0.500000 0.317996
vt 0.500000 0.284043
vt 0.500000 0.215957
vt 0.250000 0.534043
vt 0.250000 0.500000
vt 0.442996 0.375000
vt 0.375000 0.375000
vt 0.750000 0.567996
vt 0.750000 0.500000
vt 0.590957 0.375000
vt 0.625000 0.375000
vt 0.500000 0.567996
vt 0.500000 0.534043
vt 0.500000 0.465957
vt 0.340957 0.625000
vt 0.409043 0.625000
vt 0.442996 0.625000
vt 0.692996 0.625000
vt 0.659043 0.625000
vt 0.590957 0.625000
vt 0.500000 0.817996
vt 0.500000 0.784043
vt 0.500000 0.715957
vt 0.250000 0.682004
vt 0.250000 0.715957
vt 0.250000 0.750000
vt 0.442996 0.875000
vt 0.375000 0.875000
vt 0.750000 0.750000
vt 0.590957 0.875000
vt 0.625000 0.875000
vt 0.375000 0.964520
vt 0.375000 0.035480
vt 0.625000 1.000000
vt 0.875000 0.714520
vt 0.375000 0.285480
vt 0.875000 0.535480
vt 0.375000 0.785480
vt 0.660480 0.750000
s 1
f 146/1/146 113/2/113 150/3/150
f 112/4/112 128/5/128 130/6/130
f 131/7/131 105/8/105 147/9/147
f 4/10/4 143/11/143 148/12/148
f 1/13/1 120/14/120 129/15/129
f 138/16/138 124/17/124 149/18/149
f 12/19/12 13/20/13 9/21/9
f 16/22/16 14/23/14 12/19/12
f 15/24/15 16/25/16 10/26/10
f 19/27/19 17/28/17 15/29/15
f 18/30/18 19/27/19 11/31/11
f 13/20/13 20/32/20 18/33/18
f 14/23/14 17/34/17 20/32/20
f 24/35/24 25/36/25 21/37/21
f 28/38/28 26/39/26 24/35/24
f 27/40/27 28/41/28 22/42/22
f 27/43/27 32/44/32 29/45/29
f 30/46/30 31/47/31 23/48/23
f 25/49/25 32/44/32 30/46/30
f 26/50/26 29/45/29 32/44/32
f 36/51/36 37/52/37 33/53/33
f 40/54/40 38/55/38 36/51/36
f 39/56/39 40/57/40 34/58/34
f 43/59/43 41/60/41 39/56/39
f 42/61/42 43/59/43 35/62/35
f 37/52/37 44/63/44 42/64/42
f 38/55/38 41/65/41 44/63/44
f 48/66/48 49/67/49 45/68/45
f 52/69/52 50/70/50 48/71/48
f 51/72/51 52/69/52 46/73/46
f 55/74/55 53/75/53 51/72/51
f 54/76/54 55/74/55 47/77/47
f 49/78/49 56/79/56 54/76/54
f 50/80/50 53/81/53 56/79/56
f 60/82/60 61/83/61 57/84/57
f 64/85/64 62/86/62 60/82/60
f 63/87/63 64/85/64 58/88/58
f 67/89/67 65/90/65 63/87/63
f 66/91/66 67/89/67 59/92/59
f 61/83/61 68/93/68 66/94/66
f 62/86/62 65/95/65 68/93/68
f 72/96/72 73/97/73 69/98/69
f 76/99/76 74/100/74 72/101/72
f 75/102/75 76/99/76 70/103/70
f 79/104/79 77/105/77 75/102/75
f 78/106/78 79/104/79 71/107/71
f 73/97/73 80/108/80 78/106/78
f 74/100/74 77/105/77 80/109/80
f 84/110/84 85/111/85 81/112/81
f 88/113/88 86/114/86 84/110/84
f 87/115/87 88/116/88 82/117/82
f 91/118/91 89/119/89 87/115/87
f 90/120/90 91/118/91 83/121/83
f 85/111/85 92/122/92 90/120/90
f 86/114/86 89/123/89 92/124/92
f 96/125/96 97/126/97 93/127/93
f 100/128/100 98/129/98 96/125/96
f 99/130/99 100/128/100 94/131/94
f 103/132/103 101/133/101 99/130/99
f 102/134/102 103/132/103 95/135/95
f 97/136/97 104/137/104 102/134/102
f 98/138/98 101/139/101 104/137/104
f 8/140/8 13/20/13 7/141/7
f 13/20/13 6/142/6 7/141/7
f 18/30/18 5/143/5 6/144/6
f 113/2/113 25/36/25 114/145/114
f 25/49/25 115/146/115 114/147/114
f 30/46/30 116/148/116 115/146/115
f 4/10/4 49/67/49 3/149/3
f 49/78/49 2/150/2 3/151/3
f 54/76/54 1/13/1 2/150/2
f 117/152/117 43/59/43 118/153/118
f 43/59/43 119/154/119 118/153/118
f 39/56/39 120/14/120 119/154/119
f 131/7/131 37/52/37 132/155/132
f 37/52/37 133/156/133 132/155/132
f 42/61/42 134/157/134 133/158/133
f 135/159/135 97/126/97 136/160/136
f 97/136/97 137/161/137 136/162/136
f 102/134/102 138/16/138 137/161/137
f 121/163/121 91/118/91 122/164/122
f 91/118/91 123/165/123 122/164/122
f 87/115/87 124/17/124 123/165/123
f 105/8/105 85/111/85 106/166/106
f 85/111/85 107/167/107 106/166/106
f 90/120/90 108/168/108 107/167/107
f 109/169/109 73/97/73 110/170/110
f 73/97/73 111/171/111 110/170/110
f 78/106/78 112/4/112 111/171/111
f 125/172/125 67/89/67 126/173/126
f 67/89/67 127/174/127 126/173/126
f 63/87/63 128/5/128 127/174/127
f 139/175/139 61/83/61 140/176/140
f 61/83/61 141/177/141 140/176/140
f 66/91/66 142/178/142 141/179/141
f 143/11/143 28/41/28 144/180/144
f 28/38/28 145/181/145 144/182/144
f 24/35/24 146/1/146 145/181/145
f 105/8/105 139/175/139 147/9/147
f 100/128/100 112/4/112 94/131/94
f 110/170/110 100/128/100 96/125/96
f 109/169/109 96/125/96 93/127/93
f 64/85/64 108/168/108 58/88/58
f 106/166/106 64/85/64 60/82/60
f 105/8/105 60/82/60 57/84/57
f 31/47/31 1/13/1 23/48/23
f 3/151/3 31/47/31 27/43/27
f 4/10/4 27/40/27 22/42/22
f 40/57/40 5/143/5 34/58/34
f 7/141/7 40/54/40 36/51/36
f 8/140/8 36/51/36 33/53/33
f 116/148/116 1/13/1 129/15/129
f 135/159/135 4/10/4 148/12/148
f 121/163/121 112/4/112 130/6/130
f 121/163/121 108/168/108 83/121/83
f 116/148/116 5/143/5 11/31/11
f 79/104/79 128/5/128 71/107/71
f 126/173/126 79/104/79 75/102/75
f 125/172/125 75/102/75 70/103/70
f 103/132/103 124/17/124 95/135/95
f 122/164/122 103/132/103 99/130/99
f 121/163/121 99/130/99 94/131/94
f 55/74/55 120/14/120 47/77/47
f 118/153/118 55/74/55 51/72/51
f 117/152/117 51/72/51 46/73/46
f 19/27/19 116/148/116 11/31/11
f 114/147/114 19/27/19 15/29/15
f 113/2/113 15/24/15 10/26/10
f 134/157/134 124/17/124 82/117/82
f 5/143/5 120/14/120 34/58/34
f 108/168/108 128/5/128 58/88/58
f 142/178/142 113/2/113 10/26/10
f 125/172/125 142/178/142 59/92/59
f 117/152/117 134/157/134 35/62/35
f 135/159/135 109/169/109 93/127/93
f 8/140/8 139/175/139 9/21/9
f 76/99/76 146/1/146 70/103/70
f 144/182/144 76/99/76 72/101/72
f 143/11/143 72/96/72 69/98/69
f 16/25/16 142/178/142 10/26/10
f 140/176/140 16/22/16 12/19/12
f 139/175/139 12/19/12 9/21/9
f 52/69/52 138/16/138 46/73/46
f 136/162/136 52/69/52 48/71/48
f 135/159/135 48/66/48 45/68/45
f 88/116/88 134/157/134 82/117/82
f 132/155/132 88/113/88 84/110/84
f 131/7/131 84/110/84 81/112/81
f 117/152/117 138/16/138 149/18/149
f 109/169/109 143/11/143 69/98/69
f 131/7/131 8/140/8 33/53/33
f 125/172/125 146/1/146 150/3/150
f 146/1/146 21/37/21 113/2/113
f 112/4/112 71/107/71 128/5/128
f 131/7/131 81/112/81 105/8/105
f 4/10/4 22/42/22 143/11/143
f 1/13/1 47/77/47 120/14/120
f 138/16/138 95/135/95 124/17/124
f 12/19/12 14/23/14 13/20/13
f 16/22/16 17/34/17 14/23/14
f 15/24/15 17/183/17 16/25/16
f 19/27/19 20/184/20 17/28/17
f 18/30/18 20/184/20 19/27/19
f 13/20/13 14/23/14 20/32/20
f 24/35/24 26/39/26 25/36/25
f 28/38/28 29/185/29 26/39/26
f 27/40/27 29/186/29 28/41/28
f 27/43/27 31/47/31 32/44/32
f 30/46/30 32/44/32 31/47/31
f 25/49/25 26/50/26 32/44/32
f 36/51/36 38/55/38 37/52/37
f 40/54/40 41/65/41 38/55/38
f 39/56/39 41/60/41 40/57/40
f 43/59/43 44/187/44 41/60/41
f 42/61/42 44/187/44 43/59/43
f 37/52/37 38/55/38 44/63/44
f 48/66/48 50/188/50 49/67/49
f 52/69/52 53/75/53 50/70/50
f 51/72/51 53/75/53 52/69/52
f 55/74/55 56/79/56 53/75/53
f 54/76/54 56/79/56 55/74/55
f 49/78/49 50/80/50 56/79/56
f 60/82/60 62/86/62 61/83/61
f 64/85/64 65/90/65 62/86/62
f 63/87/63 65/90/65 64/85/64
f 67/89/67 68/189/68 65/90/65
f 66/91/66 68/189/68 67/89/67
f 61/83/61 62/86/62 68/93/68
f 72/96/72 74/190/74 73/97/73
f 76/99/76 77/105/77 74/100/74
f 75/102/75 77/105/77 76/99/76
f 79/104/79 80/108/80 77/105/77
f 78/106/78 80/108/80 79/104/79
f 73/97/73 74/190/74 80/108/80
f 84/110/84 86/114/86 85/111/85
f 88/113/88 89/123/89 86/114/86
f 87/115/87 89/119/89 88/116/88
f 91/118/91 92/122/92 89/119/89
f 90/120/90 92/122/92 91/118/91
f 85/111/85 86/114/86 92/122/92
f 96/125/96 98/129/98 97/126/97
f 100/128/100 101/133/101 98/129/98
f 99/130/99 101/133/101 100/128/100
f 103/132/103 104/137/104 101/133/101
f 102/134/102 104/137/104 103/132/103
f 97/136/97 98/138/98 104/137/104
f 8/140/8 9/21/9 13/20/13
f 13/20/13 18/33/18 6/142/6
f 18/30/18 11/31/11 5/143/5
f 113/2/113 21/37/21 25/36/25
f 25/49/25 30/46/30 115/146/115
f 30/46/30 23/48/23 116/148/116
f 4/10/4 45/68/45 49/67/49
f 49/78/49 54/76/54 2/150/2
f 54/76/54 47/77/47 1/13/1
f 117/152/117 35/62/35 43/59/43
f 43/59/43 39/56/39 119/154/119
f 39/56/39 34/58/34 120/14/120
f 131/7/131 33/53/33 37/52/37
f 37/52/37 42/64/42 133/156/133
f 42/61/42 35/62/35 134/157/134
f 135/159/135 93/127/93 97/126/97
f 97/136/97 102/134/102 137/161/137
f 102/134/102 95/135/95 138/16/138
f 121/163/121 83/121/83 91/118/91
f 91/118/91 87/115/87 123/165/123
f 87/115/87 82/117/82 124/17/124
f 105/8/105 81/112/81 85/111/85
f 85/111/85 90/120/90 107/167/107
f 90/120/90 83/121/83 108/168/108
f 109/169/109 69/98/69 73/97/73
f 73/97/73 78/106/78 111/171/111
f 78/106/78 71/107/71 112/4/112
f 125/172/125 59/92/59 67/89/67
f 67/89/67 63/87/63 127/174/127
f 63/87/63 58/88/58 128/5/128
f 139/175/139 57/84/57 61/83/61
f 61/83/61 66/94/66 141/177/141
f 66/91/66 59/92/59 142/178/142
f 143/11/143 22/42/22 28/41/28
f 28/38/28 24/35/24 145/181/145
f 24/35/24 21/37/21 146/1/146
f 105/8/105 57/84/57 139/175/139
f 100/128/100 111/171/111 112/4/112
f 110/170/110 111/171/111 100/128/100
f 109/169/109 110/170/110 96/125/96
f 64/85/64 107/167/107 108/168/108
f 106/166/106 107/167/107 64/85/64
f 105/8/105 106/166/106 60/82/60
f 31/47/31 2/150/2 1/13/1
f 3/151/3 2/150/2 31/47/31
f 4/10/4 3/149/3 27/40/27
f 40/57/40 6/144/6 5/143/5
f 7/141/7 6/142/6 40/54/40
f 8/140/8 7/141/7 36/51/36
f 116/148/116 23/48/23 1/13/1
f 135/159/135 45/68/45 4/10/4
f 121/163/121 94/131/94 112/4/112
f 121/163/121 130/6/130 108/168/108
f 116/148/116 129/15/129 5/143/5
f 79/104/79 127/174/127 128/5/128
f 126/173/126 127/174/127 79/104/79
f 125/172/125 126/173/126 75/102/75
f 103/132/103 123/165/123 124/17/124
f 122/164/122 123/165/123 103/132/103
f 121/163/121 122/164/122 99/130/99
f 55/74/55 119/154/119 120/14/120
f 118/153/118 119/154/119 55/74/55
f 117/152/117 118/153/118 51/72/51
f 19/27/19 115/146/115 116/148/116
f 114/147/114 115/146/115 19/27/19
f 113/2/113 114/145/114 15/24/15
f 134/157/134 149/18/149 124/17/124
f 5/143/5 129/15/129 120/14/120
f 108/168/108 130/6/130 128/5/128
f 142/178/142 150/3/150 113/2/113
f 125/172/125 150/3/150 142/178/142
f 117/152/117 149/18/149 134/157/134
f 135/159/135 148/12/148 109/169/109
f 8/140/8 147/9/147 139/175/139
f 76/99/76 145/181/145 146/1/146
f 144/182/144 145/181/145 76/99/76
f 143/11/143 144/180/144 72/96/72
f 16/25/16 141/179/141 142/178/142
f 140/176/140 141/177/141 16/22/16
f 139/175/139 140/176/140 12/19/12
f 52/69/52 137/161/137 138/16/138
f 136/162/136 137/161/137 52/69/52
f 135/159/135 136/160/136 48/66/48
f 88/116/88 133/158/133 134/157/134
f 132/155/132 133/156/133 88/113/88
f 131/7/131 132/155/132 84/110/84
f 117/152/117 46/73/46 138/16/138
f 109/169/109 148/12/148 143/11/143
f 131/7/131 147/9/147 8/140/8
f 125/172/125 70/103/70 146/1/146
